<svg xmlns="http://www.w3.org/2000/svg" viewBox="0 0 24 24" fill="#fff"><path d="M12 .5C5.73.5.77 5.46.77 11.73c0 4.92 3.19 9.09 7.62 10.57.56.1.77-.24.77-.53 0-.26-.01-1.12-.02-2.03-3.1.67-3.76-1.32-3.76-1.32-.51-1.28-1.25-1.62-1.25-1.62-1.02-.69.08-.68.08-.68 1.13.08 1.72 1.16 1.72 1.16 1.01 1.73 2.65 1.23 3.3.94.1-.73.4-1.23.73-1.51-2.47-.28-5.07-1.24-5.07-5.54 0-1.22.44-2.22 1.16-3-.12-.29-.5-1.44.11-3 0 0 .94-.3 3.08 1.15.89-.25 1.84-.38 2.78-.38.94 0 1.89.13 2.78.38 2.14-1.45 3.08-1.15 3.08-1.15.61 1.56.23 2.71.11 3 .72.78 1.16 1.78 1.16 3 0 4.31-2.6 5.25-5.08 5.53.41.36.77 1.07.77 2.16 0 1.56-.01 2.81-.01 3.19 0 .29.21.64.78.53 4.42-1.48 7.6-5.65 7.6-10.57C23.23 5.46 18.27.5 12 .5z"/></svg>
