<svg xmlns="http://www.w3.org/2000/svg" viewBox="0 0 48 48"><path fill="#FFC107" d="M43.611 20.083H42V20H24v8h11.303C33.243 32.91 29.027 36 24 36 17.373 36 12 30.627 12 24S17.373 12 24 12c3.066 0 5.864 1.154 7.988 3.044l5.657-5.657C34.943 6.012 29.743 4 24 4 12.954 4 4 12.954 4 24s8.954 20 20 20c11.046 0 20-8.954 20-20 0-1.341-.138-2.651-.389-3.917z"/><path fill="#FF3D00" d="M6.306 14.691l6.571 4.817C14.35 16.042 18.808 12 24 12c3.066 0 5.864 1.154 7.988 3.044l5.657-5.657C34.943 6.012 29.743 4 24 4 16.318 4 9.656 8.337 6.306 14.691z"/><path fill="#4CAF50" d="M24 44c5.886 0 11.167-2.253 15.132-5.903l-6.989-5.727C29.095 34.091 26.689 35 24 35c-5.006 0-9.206-3.367-10.711-7.871l-6.6 5.087C9.011 39.556 15.918 44 24 44z"/><path fill="#1976D2" d="M43.611 20.083H42V20H24v8h11.303c-1.627 4.064-5.56 7-10.303 7-5.006 0-9.206-3.367-10.711-7.871l-6.6 5.087C9.011 39.556 15.918 44 24 44c11.046 0 20-8.954 20-20 0-1.341-.138-2.651-.389-3.917z"/></svg>
